<svg width="185" height="137" viewBox="0 0 185 137" fill="none" xmlns="http://www.w3.org/2000/svg">
<g opacity="0.8" clip-path="url(#clip0_2234_8808)">
<path d="M5.27853 40.2644C5.27853 41.7838 4.14742 42.9234 2.63927 42.9234C1.13111 42.9234 0 41.7838 0 40.2644C0 38.745 1.13111 37.6055 2.63927 37.6055C4.14742 37.6055 5.27853 38.8716 5.27853 40.2644Z" fill="white"/>
<path d="M27.7751 40.2644C27.7751 41.7838 26.644 42.9234 25.1358 42.9234C23.6277 42.9234 22.4966 41.7838 22.4966 40.2644C22.4966 38.745 23.6277 37.6055 25.1358 37.6055C26.5183 37.6055 27.7751 38.8716 27.7751 40.2644Z" fill="white"/>
<path d="M50.1457 40.2644C50.1457 41.7838 49.0146 42.9234 47.5065 42.9234C45.9983 42.9234 44.8672 41.7838 44.8672 40.2644C44.8672 38.745 45.9983 37.6055 47.5065 37.6055C49.0146 37.6055 50.1457 38.8716 50.1457 40.2644Z" fill="white"/>
<path d="M72.6428 40.2644C72.6428 41.7838 71.5117 42.9234 70.0035 42.9234C68.4954 42.9234 67.3643 41.7838 67.3643 40.2644C67.3643 38.745 68.4954 37.6055 70.0035 37.6055C71.5117 37.6055 72.6428 38.8716 72.6428 40.2644Z" fill="white"/>
<path d="M95.1394 40.2644C95.1394 41.7838 94.0083 42.9234 92.5001 42.9234C90.992 42.9234 89.8608 41.7838 89.8608 40.2644C89.8608 38.745 90.992 37.6055 92.5001 37.6055C93.8826 37.6055 95.1394 38.8716 95.1394 40.2644Z" fill="white"/>
<path d="M117.636 40.2644C117.636 41.7838 116.505 42.9234 114.997 42.9234C113.489 42.9234 112.357 41.7838 112.357 40.2644C112.357 38.745 113.489 37.6055 114.997 37.6055C116.505 37.6055 117.636 38.8716 117.636 40.2644Z" fill="white"/>
<path d="M140.007 40.2644C140.007 41.7838 138.875 42.9234 137.367 42.9234C135.859 42.9234 134.728 41.7838 134.728 40.2644C134.728 38.745 135.859 37.6055 137.367 37.6055C138.875 37.6055 140.007 38.8716 140.007 40.2644Z" fill="white"/>
<path d="M162.503 40.2644C162.503 41.7838 161.372 42.9234 159.864 42.9234C158.356 42.9234 157.225 41.7838 157.225 40.2644C157.225 38.745 158.356 37.6055 159.864 37.6055C161.372 37.6055 162.503 38.8716 162.503 40.2644Z" fill="white"/>
<path d="M185 40.2644C185 41.7838 183.869 42.9234 182.361 42.9234C180.853 42.9234 179.722 41.7838 179.722 40.2644C179.722 38.745 180.853 37.6055 182.361 37.6055C183.743 37.6055 185 38.8716 185 40.2644Z" fill="white"/>
<path d="M5.27853 59.1306C5.27853 60.6501 4.14742 61.7896 2.63927 61.7896C1.13111 61.7896 0 60.6501 0 59.1306C0 57.6112 1.13111 56.4717 2.63927 56.4717C4.14742 56.4717 5.27853 57.6112 5.27853 59.1306Z" fill="white"/>
<path d="M27.7751 59.1306C27.7751 60.6501 26.644 61.7896 25.1358 61.7896C23.6277 61.7896 22.4966 60.6501 22.4966 59.1306C22.4966 57.6112 23.6277 56.4717 25.1358 56.4717C26.5183 56.4717 27.7751 57.6112 27.7751 59.1306Z" fill="white"/>
<path d="M50.1457 59.1306C50.1457 60.6501 49.0146 61.7896 47.5065 61.7896C45.9983 61.7896 44.8672 60.6501 44.8672 59.1306C44.8672 57.6112 45.9983 56.4717 47.5065 56.4717C49.0146 56.4717 50.1457 57.6112 50.1457 59.1306Z" fill="white"/>
<path d="M72.6428 59.1306C72.6428 60.6501 71.5117 61.7896 70.0035 61.7896C68.4954 61.7896 67.3643 60.6501 67.3643 59.1306C67.3643 57.6112 68.4954 56.4717 70.0035 56.4717C71.5117 56.4717 72.6428 57.6112 72.6428 59.1306Z" fill="white"/>
<path d="M95.1394 59.1306C95.1394 60.6501 94.0083 61.7896 92.5001 61.7896C90.992 61.7896 89.8608 60.6501 89.8608 59.1306C89.8608 57.6112 90.992 56.4717 92.5001 56.4717C93.8826 56.4717 95.1394 57.6112 95.1394 59.1306Z" fill="white"/>
<path d="M117.636 59.1306C117.636 60.6501 116.505 61.7896 114.997 61.7896C113.489 61.7896 112.357 60.6501 112.357 59.1306C112.357 57.6112 113.489 56.4717 114.997 56.4717C116.505 56.4717 117.636 57.6112 117.636 59.1306Z" fill="white"/>
<path d="M140.007 59.1306C140.007 60.6501 138.875 61.7896 137.367 61.7896C135.859 61.7896 134.728 60.6501 134.728 59.1306C134.728 57.6112 135.859 56.4717 137.367 56.4717C138.875 56.4717 140.007 57.6112 140.007 59.1306Z" fill="white"/>
<path d="M162.503 59.1306C162.503 60.6501 161.372 61.7896 159.864 61.7896C158.356 61.7896 157.225 60.6501 157.225 59.1306C157.225 57.6112 158.356 56.4717 159.864 56.4717C161.372 56.4717 162.503 57.6112 162.503 59.1306Z" fill="white"/>
<path d="M185 59.1306C185 60.6501 183.869 61.7896 182.361 61.7896C180.853 61.7896 179.722 60.6501 179.722 59.1306C179.722 57.6112 180.853 56.4717 182.361 56.4717C183.743 56.4717 185 57.6112 185 59.1306Z" fill="white"/>
<path d="M5.27853 2.65896C5.27853 4.17837 4.14742 5.31793 2.63927 5.31793C1.13111 5.31793 0 4.17837 0 2.65896C0 1.13956 1.13111 0 2.63927 0C4.14742 0 5.27853 1.13956 5.27853 2.65896Z" fill="white"/>
<path d="M27.7751 2.65896C27.7751 4.17837 26.644 5.31793 25.1358 5.31793C23.6277 5.31793 22.4966 4.17837 22.4966 2.65896C22.4966 1.13956 23.6277 0 25.1358 0C26.5183 0 27.7751 1.13956 27.7751 2.65896Z" fill="white"/>
<path d="M50.1457 2.65896C50.1457 4.17837 49.0146 5.31793 47.5065 5.31793C45.9983 5.31793 44.8672 4.17837 44.8672 2.65896C44.8672 1.13956 46.124 0 47.5065 0C49.0146 0 50.1457 1.13956 50.1457 2.65896Z" fill="white"/>
<path d="M72.6428 2.65896C72.6428 4.17837 71.5117 5.31793 70.0035 5.31793C68.4954 5.31793 67.3643 4.17837 67.3643 2.65896C67.3643 1.13956 68.6211 0 70.0035 0C71.386 0 72.6428 1.13956 72.6428 2.65896Z" fill="white"/>
<path d="M95.1394 2.65896C95.1394 4.17837 94.0083 5.31793 92.5001 5.31793C90.992 5.31793 89.8608 4.17837 89.8608 2.65896C89.8608 1.13956 90.992 0 92.5001 0C93.8826 0 95.1394 1.13956 95.1394 2.65896Z" fill="white"/>
<path d="M117.636 2.65896C117.636 4.17837 116.505 5.31793 114.997 5.31793C113.489 5.31793 112.357 4.17837 112.357 2.65896C112.357 1.13956 113.489 0 114.997 0C116.505 0 117.636 1.13956 117.636 2.65896Z" fill="white"/>
<path d="M140.007 2.65896C140.007 4.17837 138.875 5.31793 137.367 5.31793C135.859 5.31793 134.728 4.17837 134.728 2.65896C134.728 1.13956 135.859 0 137.367 0C138.875 0 140.007 1.13956 140.007 2.65896Z" fill="white"/>
<path d="M162.503 2.65896C162.503 4.17837 161.372 5.31793 159.864 5.31793C158.356 5.31793 157.225 4.17837 157.225 2.65896C157.225 1.13956 158.356 0 159.864 0C161.372 0 162.503 1.13956 162.503 2.65896Z" fill="white"/>
<path d="M185 2.65896C185 4.17837 183.869 5.31793 182.361 5.31793C180.853 5.31793 179.722 4.17837 179.722 2.65896C179.722 1.13956 180.853 0 182.361 0C183.743 0 185 1.13956 185 2.65896Z" fill="white"/>
<path d="M5.27853 21.5252C5.27853 23.0446 4.14742 24.1841 2.63927 24.1841C1.13111 24.1841 0 22.918 0 21.5252C0 20.0058 1.13111 18.8662 2.63927 18.8662C4.14742 18.8662 5.27853 20.0058 5.27853 21.5252Z" fill="white"/>
<path d="M27.7751 21.5252C27.7751 23.0446 26.644 24.1841 25.1358 24.1841C23.6277 24.1841 22.4966 23.0446 22.4966 21.5252C22.4966 20.0058 23.6277 18.8662 25.1358 18.8662C26.5183 18.8662 27.7751 20.0058 27.7751 21.5252Z" fill="white"/>
<path d="M50.1457 21.5252C50.1457 23.0446 49.0146 24.1841 47.5065 24.1841C45.9983 24.1841 44.8672 23.0446 44.8672 21.5252C44.8672 20.0058 45.9983 18.8662 47.5065 18.8662C49.0146 18.8662 50.1457 20.0058 50.1457 21.5252Z" fill="white"/>
<path d="M72.6428 21.5252C72.6428 23.0446 71.5117 24.1841 70.0035 24.1841C68.4954 24.1841 67.3643 23.0446 67.3643 21.5252C67.3643 20.0058 68.4954 18.8662 70.0035 18.8662C71.5117 18.8662 72.6428 20.0058 72.6428 21.5252Z" fill="white"/>
<path d="M95.1394 21.5252C95.1394 23.0446 94.0083 24.1841 92.5001 24.1841C90.992 24.1841 89.8608 23.0446 89.8608 21.5252C89.8608 20.0058 90.992 18.8662 92.5001 18.8662C93.8826 18.8662 95.1394 20.0058 95.1394 21.5252Z" fill="white"/>
<path d="M117.636 21.5252C117.636 23.0446 116.505 24.1841 114.997 24.1841C113.489 24.1841 112.357 23.0446 112.357 21.5252C112.357 20.0058 113.489 18.8662 114.997 18.8662C116.505 18.8662 117.636 20.0058 117.636 21.5252Z" fill="white"/>
<path d="M140.007 21.5252C140.007 23.0446 138.875 24.1841 137.367 24.1841C135.859 24.1841 134.728 23.0446 134.728 21.5252C134.728 20.0058 135.859 18.8662 137.367 18.8662C138.875 18.8662 140.007 20.0058 140.007 21.5252Z" fill="white"/>
<path d="M162.503 21.5252C162.503 23.0446 161.372 24.1841 159.864 24.1841C158.356 24.1841 157.225 23.0446 157.225 21.5252C157.225 20.0058 158.356 18.8662 159.864 18.8662C161.372 18.8662 162.503 20.0058 162.503 21.5252Z" fill="white"/>
<path d="M185 21.5252C185 23.0446 183.869 24.1841 182.361 24.1841C180.853 24.1841 179.722 23.0446 179.722 21.5252C179.722 20.0058 180.853 18.8662 182.361 18.8662C183.743 18.8662 185 20.0058 185 21.5252Z" fill="white"/>
<path d="M5.27853 77.8699C5.27853 79.3893 4.14742 80.5289 2.63927 80.5289C1.13111 80.5289 0 79.3893 0 77.8699C0 76.3505 1.13111 75.2109 2.63927 75.2109C4.14742 75.2109 5.27853 76.4771 5.27853 77.8699Z" fill="white"/>
<path d="M27.7751 77.8699C27.7751 79.3893 26.644 80.5289 25.1358 80.5289C23.6277 80.5289 22.4966 79.3893 22.4966 77.8699C22.4966 76.3505 23.6277 75.2109 25.1358 75.2109C26.5183 75.2109 27.7751 76.4771 27.7751 77.8699Z" fill="white"/>
<path d="M50.1457 77.8699C50.1457 79.3893 49.0146 80.5289 47.5065 80.5289C45.9983 80.5289 44.8672 79.3893 44.8672 77.8699C44.8672 76.3505 45.9983 75.2109 47.5065 75.2109C49.0146 75.2109 50.1457 76.4771 50.1457 77.8699Z" fill="white"/>
<path d="M72.6428 77.8699C72.6428 79.3893 71.5117 80.5289 70.0035 80.5289C68.4954 80.5289 67.3643 79.3893 67.3643 77.8699C67.3643 76.3505 68.4954 75.2109 70.0035 75.2109C71.5117 75.2109 72.6428 76.4771 72.6428 77.8699Z" fill="white"/>
<path d="M95.1394 77.8699C95.1394 79.3893 94.0083 80.5289 92.5001 80.5289C90.992 80.5289 89.8608 79.3893 89.8608 77.8699C89.8608 76.3505 90.992 75.2109 92.5001 75.2109C93.8826 75.2109 95.1394 76.4771 95.1394 77.8699Z" fill="white"/>
<path d="M117.636 77.8699C117.636 79.3893 116.505 80.5289 114.997 80.5289C113.489 80.5289 112.357 79.3893 112.357 77.8699C112.357 76.3505 113.489 75.2109 114.997 75.2109C116.505 75.2109 117.636 76.4771 117.636 77.8699Z" fill="white"/>
<path d="M140.007 77.8699C140.007 79.3893 138.875 80.5289 137.367 80.5289C135.859 80.5289 134.728 79.3893 134.728 77.8699C134.728 76.3505 135.859 75.2109 137.367 75.2109C138.875 75.2109 140.007 76.4771 140.007 77.8699Z" fill="white"/>
<path d="M162.503 77.8699C162.503 79.3893 161.372 80.5289 159.864 80.5289C158.356 80.5289 157.225 79.3893 157.225 77.8699C157.225 76.3505 158.356 75.2109 159.864 75.2109C161.372 75.2109 162.503 76.4771 162.503 77.8699Z" fill="white"/>
<path d="M185 77.8699C185 79.3893 183.869 80.5289 182.361 80.5289C180.853 80.5289 179.722 79.3893 179.722 77.8699C179.722 76.3505 180.853 75.2109 182.361 75.2109C183.743 75.2109 185 76.4771 185 77.8699Z" fill="white"/>
<path d="M5.27853 96.7361C5.27853 98.2555 4.14742 99.3951 2.63927 99.3951C1.13111 99.3951 0 98.2555 0 96.7361C0 95.2167 1.13111 94.0771 2.63927 94.0771C4.14742 94.0771 5.27853 95.2167 5.27853 96.7361Z" fill="white"/>
<path d="M27.7751 96.7361C27.7751 98.2555 26.644 99.3951 25.1358 99.3951C23.6277 99.3951 22.4966 98.2555 22.4966 96.7361C22.4966 95.2167 23.6277 94.0771 25.1358 94.0771C26.5183 94.0771 27.7751 95.2167 27.7751 96.7361Z" fill="white"/>
<path d="M50.1457 96.7361C50.1457 98.2555 49.0146 99.3951 47.5065 99.3951C45.9983 99.3951 44.8672 98.2555 44.8672 96.7361C44.8672 95.2167 45.9983 94.0771 47.5065 94.0771C49.0146 94.0771 50.1457 95.2167 50.1457 96.7361Z" fill="white"/>
<path d="M70.0035 99.3951C71.4612 99.3951 72.6428 98.2046 72.6428 96.7361C72.6428 95.2676 71.4612 94.0771 70.0035 94.0771C68.5459 94.0771 67.3643 95.2676 67.3643 96.7361C67.3643 98.2046 68.5459 99.3951 70.0035 99.3951Z" fill="white"/>
<path d="M95.1394 96.7361C95.1394 98.2555 94.0083 99.3951 92.5001 99.3951C90.992 99.3951 89.8608 98.2555 89.8608 96.7361C89.8608 95.2167 90.992 94.0771 92.5001 94.0771C93.8826 94.0771 95.1394 95.2167 95.1394 96.7361Z" fill="white"/>
<path d="M117.636 96.7361C117.636 98.2555 116.505 99.3951 114.997 99.3951C113.489 99.3951 112.357 98.2555 112.357 96.7361C112.357 95.2167 113.489 94.0771 114.997 94.0771C116.505 94.0771 117.636 95.2167 117.636 96.7361Z" fill="white"/>
<path d="M140.007 96.7361C140.007 98.2555 138.875 99.3951 137.367 99.3951C135.859 99.3951 134.728 98.2555 134.728 96.7361C134.728 95.2167 135.859 94.0771 137.367 94.0771C138.875 94.0771 140.007 95.2167 140.007 96.7361Z" fill="white"/>
<path d="M159.864 99.3951C161.321 99.3951 162.503 98.2046 162.503 96.7361C162.503 95.2676 161.321 94.0771 159.864 94.0771C158.406 94.0771 157.225 95.2676 157.225 96.7361C157.225 98.2046 158.406 99.3951 159.864 99.3951Z" fill="white"/>
<path d="M185 96.7361C185 98.2555 183.869 99.3951 182.361 99.3951C180.853 99.3951 179.722 98.2555 179.722 96.7361C179.722 95.2167 180.853 94.0771 182.361 94.0771C183.743 94.0771 185 95.2167 185 96.7361Z" fill="white"/>
<path d="M5.27853 115.601C5.27853 117.121 4.14742 118.26 2.63927 118.26C1.13111 118.26 0 117.121 0 115.601C0 114.082 1.13111 112.942 2.63927 112.942C4.14742 112.942 5.27853 114.082 5.27853 115.601Z" fill="white"/>
<path d="M27.7751 115.601C27.7751 117.121 26.644 118.26 25.1358 118.26C23.6277 118.26 22.4966 117.121 22.4966 115.601C22.4966 114.082 23.6277 112.942 25.1358 112.942C26.5183 112.942 27.7751 114.082 27.7751 115.601Z" fill="white"/>
<path d="M50.1457 115.601C50.1457 117.121 49.0146 118.26 47.5065 118.26C45.9983 118.26 44.8672 117.121 44.8672 115.601C44.8672 114.082 45.9983 112.942 47.5065 112.942C49.0146 112.942 50.1457 114.082 50.1457 115.601Z" fill="white"/>
<path d="M72.6428 115.601C72.6428 117.121 71.5117 118.26 70.0035 118.26C68.4954 118.26 67.3643 117.121 67.3643 115.601C67.3643 114.082 68.4954 112.942 70.0035 112.942C71.5117 112.942 72.6428 114.082 72.6428 115.601Z" fill="white"/>
<path d="M95.1394 115.601C95.1394 117.121 94.0083 118.26 92.5001 118.26C90.992 118.26 89.8608 117.121 89.8608 115.601C89.8608 114.082 90.992 112.942 92.5001 112.942C93.8826 112.942 95.1394 114.082 95.1394 115.601Z" fill="white"/>
<path d="M117.636 115.601C117.636 117.121 116.505 118.26 114.997 118.26C113.489 118.26 112.357 117.121 112.357 115.601C112.357 114.082 113.489 112.942 114.997 112.942C116.505 112.942 117.636 114.082 117.636 115.601Z" fill="white"/>
<path d="M140.007 115.601C140.007 117.121 138.875 118.26 137.367 118.26C135.859 118.26 134.728 117.121 134.728 115.601C134.728 114.082 135.859 112.942 137.367 112.942C138.875 112.942 140.007 114.082 140.007 115.601Z" fill="white"/>
<path d="M162.503 115.601C162.503 117.121 161.372 118.26 159.864 118.26C158.356 118.26 157.225 117.121 157.225 115.601C157.225 114.082 158.356 112.942 159.864 112.942C161.372 112.942 162.503 114.082 162.503 115.601Z" fill="white"/>
<path d="M185 115.601C185 117.121 183.869 118.26 182.361 118.26C180.853 118.26 179.722 117.121 179.722 115.601C179.722 114.082 180.853 112.942 182.361 112.942C183.743 112.942 185 114.082 185 115.601Z" fill="white"/>
<path d="M5.27853 134.341C5.27853 135.86 4.14742 137 2.63927 137C1.13111 137 0 135.86 0 134.341C0 132.821 1.13111 131.682 2.63927 131.682C4.14742 131.682 5.27853 132.948 5.27853 134.341Z" fill="white"/>
<path d="M27.7751 134.341C27.7751 135.86 26.644 137 25.1358 137C23.6277 137 22.4966 135.86 22.4966 134.341C22.4966 132.821 23.6277 131.682 25.1358 131.682C26.5183 131.682 27.7751 132.948 27.7751 134.341Z" fill="white"/>
<path d="M50.1457 134.341C50.1457 135.86 49.0146 137 47.5065 137C45.9983 137 44.8672 135.86 44.8672 134.341C44.8672 132.821 45.9983 131.682 47.5065 131.682C49.0146 131.682 50.1457 132.948 50.1457 134.341Z" fill="white"/>
<path d="M72.6428 134.341C72.6428 135.86 71.5117 137 70.0035 137C68.4954 137 67.3643 135.86 67.3643 134.341C67.3643 132.821 68.4954 131.682 70.0035 131.682C71.5117 131.682 72.6428 132.948 72.6428 134.341Z" fill="white"/>
<path d="M95.1394 134.341C95.1394 135.86 94.0083 137 92.5001 137C90.992 137 89.8608 135.86 89.8608 134.341C89.8608 132.821 90.992 131.682 92.5001 131.682C93.8826 131.682 95.1394 132.948 95.1394 134.341Z" fill="white"/>
<path d="M117.636 134.341C117.636 135.86 116.505 137 114.997 137C113.489 137 112.357 135.86 112.357 134.341C112.357 132.821 113.489 131.682 114.997 131.682C116.505 131.682 117.636 132.948 117.636 134.341Z" fill="white"/>
<path d="M140.007 134.341C140.007 135.86 138.875 137 137.367 137C135.859 137 134.728 135.86 134.728 134.341C134.728 132.821 135.859 131.682 137.367 131.682C138.875 131.682 140.007 132.948 140.007 134.341Z" fill="white"/>
<path d="M162.503 134.341C162.503 135.86 161.372 137 159.864 137C158.356 137 157.225 135.86 157.225 134.341C157.225 132.821 158.356 131.682 159.864 131.682C161.372 131.682 162.503 132.948 162.503 134.341Z" fill="white"/>
<path d="M185 134.341C185 135.86 183.869 137 182.361 137C180.853 137 179.722 135.86 179.722 134.341C179.722 132.821 180.853 131.682 182.361 131.682C183.743 131.682 185 132.948 185 134.341Z" fill="white"/>
</g>
<defs>
<clipPath id="clip0_2234_8808">
<rect width="185" height="137" fill="white"/>
</clipPath>
</defs>
</svg>
